<svg width="26" height="26" viewBox="0 0 26 26" fill="none" xmlns="http://www.w3.org/2000/svg">
<path fill-rule="evenodd" clip-rule="evenodd" d="M25.7501 13C25.7501 19.9031 20.1532 25.5 13.2501 25.5C6.34699 25.5 0.750119 19.9031 0.750119 13C0.750119 6.09688 6.34699 0.5 13.2501 0.5C20.1532 0.5 25.7501 6.09688 25.7501 13ZM13.698 9.72812C12.4824 10.2333 10.0522 11.2802 6.40845 12.8677C5.81679 13.1031 5.50637 13.3333 5.47824 13.5583C5.43033 13.9396 5.90741 14.0896 6.55533 14.2927C6.64387 14.3208 6.73554 14.349 6.82929 14.3802C7.46783 14.5875 8.32616 14.8302 8.77199 14.8396C9.1772 14.8479 9.62929 14.6812 10.1282 14.3396C13.5324 12.0406 15.2897 10.8792 15.4001 10.8542C15.4782 10.8365 15.5866 10.8135 15.6595 10.8792C15.7324 10.9437 15.7251 11.0667 15.7178 11.1C15.6699 11.301 13.8012 13.0396 12.8324 13.9396C12.5303 14.2198 12.3168 14.4187 12.273 14.4646C12.1751 14.5656 12.0751 14.6625 11.9793 14.7552C11.3855 15.326 10.9418 15.7552 12.0043 16.4552C12.5147 16.7917 12.923 17.0698 13.3303 17.3469C13.7751 17.65 14.2189 17.9521 14.7939 18.3292C14.9397 18.425 15.0793 18.524 15.2157 18.6208C15.7335 18.9906 16.1991 19.3219 16.7741 19.2698C17.1074 19.2385 17.4532 18.925 17.6282 17.9885C18.0418 15.774 18.8564 10.9781 19.0449 9.00104C19.0564 8.83689 19.0494 8.67197 19.0241 8.50937C19.0089 8.37805 18.945 8.25722 18.8449 8.17083C18.696 8.04896 18.4647 8.02292 18.3605 8.025C17.8907 8.03333 17.1699 8.28437 13.698 9.72812Z" fill="#0088CC"/>
</svg>
